<svg class="banner-bunny" xmlns="http://www.w3.org/2000/svg" xmlns:xlink="http://www.w3.org/1999/xlink" viewBox="0 0 377.28 296.62"><defs><style>.cls-1,.cls-12,.cls-17,.cls-18{fill:none;}.cls-2{fill:#abc4c3;}.cls-3{fill:#838484;}.cls-4{fill:#e2e2e2;}.cls-5{fill:url(#New_Pattern_Swatch_2);}.cls-6{opacity:0.14;}.cls-7,.cls-8{fill:#3a3a3a;}.cls-12,.cls-8{stroke:#a36228;stroke-width:0.58px;}.cls-12,.cls-17,.cls-18,.cls-8{stroke-miterlimit:10;}.cls-9{fill:#b8c460;}.cls-10{fill:#d88725;}.cls-11{fill:#c67822;}.cls-13{fill:#fff;}.cls-14{fill:#f7f7f7;}.cls-15{fill:#deb4c6;}.cls-16{fill:#3c2310;}.cls-17{stroke:#3c2310;}.cls-18{stroke:#997979;}.cls-19{fill:#3a8987;}.cls-20{fill:#347572;}.cls-21{fill:#464949;}.cls-22{fill:#60c6be;}</style><pattern id="New_Pattern_Swatch_2" data-name="New Pattern Swatch 2" x="-530.59" y="-103.34" width="117.41" height="31.21" patternUnits="userSpaceOnUse" viewBox="0 0 117.41 31.21"><rect class="cls-1" width="117.41" height="31.21"/><polygon class="cls-2" points="18.21 29.63 45.75 0.63 72.75 0.63 56.5 29.63 18.21 29.63"/><path class="cls-3" d="M.24,30.06c1.16.67,3.86,1.7,5.12.79,1.46-1.07.36-3.89-.05-5.19L4.4,26c.58.92,1.5,1.9,2.47.88.48-.51.43-1.45.74-2.06.81-1.63,2-.85,3.42-1.13,1.59-.31,5.9-5.49,3-5.77a.5.5,0,0,0-.5.5c.32,2.48,6.32-1.26,7-1.65A.5.5,0,0,0,20,16a41.93,41.93,0,0,1-4.4,2.11c-2.7,1.19-2.22,4.69-6,4.53-.91,0-1.44-.25-2.17.46a3.82,3.82,0,0,0-.73,1.29c-.22.52-.51,2.74-1.48,1.19-.29-.47-1.09-.17-.91.39.24.76.89,2.28.71,3.05-.42,1.85-3.47.7-4.3.22a.5.5,0,0,0-.5.86Z"/><path class="cls-3" d="M24.49,11.56a4.72,4.72,0,0,0,2.88,1c.29,0,.39-.38.35-.62a15.75,15.75,0,0,1-.65-2.75l-.85.35c.67.53,1.3,1.44,2.15.79.58-.45.38-1.4.57-2,.39-1.28.12-.52,1.3-1.11.64-.32.68-.72,1.13-1.23,1.11-1.24,1.39-.45,2.59-1.14a3.79,3.79,0,0,0,1.29-1.67c.64-1.29,1.74-2.85,2.81-.79.3.57,1.16.07.86-.5-.51-1-1.73-2.2-3-1.8C33.49.83,35.55,4.39,31.47,4a.49.49,0,0,0-.43.25c-.51,1-1.21,2.22-2.51,2.18a.51.51,0,0,0-.5.5c0,.59,0,2.75-1.1,1.89a.51.51,0,0,0-.85.35,16.4,16.4,0,0,0,.69,3l.35-.62c-.68.09-1.54-.57-2.11-.89s-1.07.55-.5.86Z"/><path class="cls-3" d="M64.75,27.63c0-.95,0-2.56.94-3.11.43-.25,1-.11,1.43-.45.8-.63.73-1.92.83-2.82a14.92,14.92,0,0,0-.09-1.6A17.25,17.25,0,0,1,69.2,18c.83-.8,1.31-.75,1.21-2,0-.64-1.05-.64-1,0,.08,1.06-1.94,2-2.34,2.94a13.07,13.07,0,0,0-.28,2.57,3.54,3.54,0,0,0,0,.78q-.24,1.32-1.34,1.3c-.45.3-.59.09-1,.52-.69.76-.71,2.57-.7,3.55a.5.5,0,0,0,1,0Z"/><path class="cls-3" d="M69.75,28.3c0-1.3-.71-2.55.06-3.7a7,7,0,0,1,1.93-1.78c.32-.22.64-.21.9-.55.39-.5.14-1,.2-1.5.17-1.39,1-2.25,1.07-3.63.05-.64-.95-.64-1,0-.12,1.53-.93,1.4-1.11,2.41,0,.24,0,.58-.05.8C71.24,22,70.6,22,69.64,23c-1.81,1.93-.89,2.94-.9,5.31a.5.5,0,0,0,1,0Z"/><path class="cls-3" d="M75.41,28.47c0-1.1-.39-2.06-.47-3.13-.12-1.76.74-1.61,1.14-2.86.1-.31,0-.6.14-.88s.51-.36.77-.62a2.88,2.88,0,0,0,.74-1.71c.09-.63-.88-.9-1-.27-.18,1.3-1,1.15-1.48,2a3.24,3.24,0,0,0-.18.52,8.32,8.32,0,0,1-.75,1.64c-1.11,1.62,0,3.5.05,5.34a.5.5,0,0,0,1,0Z"/><path class="cls-3" d="M71.89,10.77c.41-1,.63-2.08,1.13-3,.38-.72,1.13-1.17,1.47-1.89.25-.53.16-1.18.39-1.72a16.64,16.64,0,0,1,1-2.07c.35-.54-.51-1-.86-.5-.88,1.34-1,3.09-1.91,4.4a22.52,22.52,0,0,0-2.14,4.55c-.24.6.72.85,1,.27Z"/><path class="cls-3" d="M76.91,11.8a18.92,18.92,0,0,0-.46-2.34c-.11-.85.11-.56.67-1.16s.56-1.71,1.25-2.43a8.47,8.47,0,0,0,1.48-1.82.5.5,0,0,0-.86-.5c-.47.78-1.15,1.32-1.68,2a8.58,8.58,0,0,0-.62,1.26,6.27,6.27,0,0,1-1,1.15c-.94,1.09.18,2.47.19,3.8a.5.5,0,0,0,1,0Z"/><path class="cls-3" d="M81.56,13.67c-.31-1-.87-2.41-.47-3.36.29-.7.93-.78,1.38-1.4a2.21,2.21,0,0,0,.4-1.21c.11-1.37,0-2.52,1.23-3.55.49-.42-.22-1.12-.71-.71A4.51,4.51,0,0,0,82,5.84a10.4,10.4,0,0,0-.26,1.31A2.59,2.59,0,0,1,80.59,9c-1.41,1.19-.51,3.33,0,4.92.2.61,1.17.35,1-.27Z"/><path class="cls-3" d="M79.84,28.55c-1-1.3-.55-1.75.19-2.85a8.34,8.34,0,0,0,.84-2c.4-1.07,1.34-1.77,1.82-2.8a6.28,6.28,0,0,0,.39-2.75.5.5,0,0,0-1,0c0,1.78-.66,2.7-1.58,4.08a6.18,6.18,0,0,0-.66,1.18,2.93,2.93,0,0,1-.2.77,1.76,1.76,0,0,1-1,1.43c-.86,1.12-.56,2.29.3,3.45.38.51,1.25,0,.86-.5Z"/><path class="cls-3" d="M85.58,10c0-.77-.39-2.49.32-3,.31-.2.73-.05,1.06-.33a1.61,1.61,0,0,0,.5-1,4.93,4.93,0,0,1,1-2.82c.39-.5-.31-1.22-.71-.71A6.75,6.75,0,0,0,86.54,4a10.14,10.14,0,0,0-.08,1c-.15.72-.49.75-1,1-1.49.73-.91,2.4-.91,3.9a.5.5,0,0,0,1,0Z"/><polygon class="cls-2" points="91.75 13.63 114.75 13.63 117.41 0.98 95.25 0.63 91.75 13.63"/><path class="cls-3" d="M91.41,27c0-1.29-.28-2,.28-3.12.39-.81.59-1.69,1-2.45A6.9,6.9,0,0,0,93.41,17c-.07-.63-1.07-.64-1,0a8.32,8.32,0,0,1-.17,2.4,2.49,2.49,0,0,0,.11.48A1.73,1.73,0,0,1,91.67,21c-.07.15-.19.3-.26.46-.36.79-.17,1.12-.72,2-.14.21-.44.33-.51.59-.28,1,.22,1.81.23,2.89a.5.5,0,0,0,1,0Z"/><path class="cls-3" d="M97.51,27.38a1.19,1.19,0,0,1-.23-1.31.83.83,0,0,1,.5-1.08c.1-.23.34-.4.41-.65.16-.59-.25-.83-.25-1.33a8.14,8.14,0,0,1,1-2.83c.47-1.28.7-2.63,1.15-3.92.21-.61-.75-.87-1-.27a31.9,31.9,0,0,1-1.88,5.17,2.77,2.77,0,0,0-.53,1.51c-.05,1.05.79.12,0,2-.11.23-.47.28-.53.57a3.19,3.19,0,0,0,.54,2.69c.31.57,1.17.06.86-.5Z"/><path class="cls-3" d="M104.75,26.47a15.37,15.37,0,0,1-.21-2.16c.15-1.3.63-.86,1-1.69.28-.55.08-.89-.15-1.4a7.62,7.62,0,0,1-.69-2.86c0-.44-.1-.24,0-.65s.51-.89.64-1.44-.82-.89-1-.27c-.19.8-.86,1.31-1,2.09l.17.4a2.25,2.25,0,0,1,.17,1.78c0,.23.11.48.16.72.12.55.78.52.54,1.31-.07.24-.6.54-.74.82-.54,1-.09,2.3,0,3.36,0,.64,1,.64,1,0Z"/><path class="cls-3" d="M111.51,24.89c.59-1.1,2.15-2.32,1.15-3.66a1.51,1.51,0,0,0-.25-.27q-.41-.16,0-.3c.07-.26.38-.45.45-.75a1.76,1.76,0,0,0,0-.83,2.44,2.44,0,0,1,.33-2c.31-.57-.55-1.07-.86-.5a3.62,3.62,0,0,0-.7,2c.07.75.33.83-.08,1.58-.12.21-.34.33-.38.6-.08.53.3.58.54,1,.64,1-.59,1.86-1,2.72-.3.57.56,1.07.86.5Z"/></pattern></defs><title>morris-vector-assets3</title><g id="Layer_3" data-name="Layer 3"><polygon class="cls-4" points="0 296.62 50.18 258.64 331.73 256.32 377.28 293.33 0 296.62"/><polygon class="cls-5" points="0 296.62 50.18 258.64 331.73 256.32 377.28 293.33 0 296.62"/>
  
  <g class="cls-6 shadow shadow1"><path class="cls-7" d="M809.25,360.79s-12.08-1-19.66.38-10.67-1.58-7.87-3.93,9.21-4.62,10.91-4.25-.2-1,.23-5,.28-4.87,3.36-4.28,3.9,2.47,6.79-2.58,4.18-5.62,6.36-1.83,3.11,6.77,1.69,8.76-1.44,2.39-.14,6.35a25.23,25.23,0,0,0,3.74,7S810.61,365,809.25,360.79Z" transform="translate(-530.59 -103.34)"/><path class="cls-7" d="M855.23,384.78s-29.48-30.3-34.59-30.3-16.95,9.69-16.36,13.91S849.79,386.35,855.23,384.78Z" transform="translate(-530.59 -103.34)"/><path class="cls-7" d="M805.6,364.82s41.74,20.83,49.63,20c-4.57,1.38-45.88-10.05-50.82-16C804.42,368.73,803.7,367.14,805.6,364.82Z" transform="translate(-530.59 -103.34)"/><path class="cls-8" d="M809.9,369.82a29.39,29.39,0,0,1,13-12" transform="translate(-530.59 -103.34)"/><path class="cls-8" d="M815.76,372.94a28.69,28.69,0,0,1,12.17-10.65" transform="translate(-530.59 -103.34)"/><path class="cls-8" d="M823.95,375.18a28,28,0,0,1,9.94-9.44" transform="translate(-530.59 -103.34)"/><path class="cls-8" d="M830.56,378a27.46,27.46,0,0,1,8.27-7.92" transform="translate(-530.59 -103.34)"/></g>
  
  <g id="Carrot1"><path class="cls-9" d="M810.12,357.69s-12.91-1.56-21.23-.53-11.32-2.1-8-4.34,10.44-4.24,12.22-3.79-.1-1,.8-5,.84-4.91,4.09-4.16,3.93,2.68,7.6-2.28,5.13-5.48,7.05-1.55,2.61,7,.85,8.92-1.81,2.35-.85,6.41a23.16,23.16,0,0,0,3.25,7.26S811.12,362,810.12,357.69Z" transform="translate(-530.59 -103.34)"/><path class="cls-10" d="M857,384.05s-28.41-32-33.92-32.21-19.33,9-19.17,13.28S851,385.39,857,384.05Z" transform="translate(-530.59 -103.34)"/><path class="cls-11" d="M805.74,361.59s42.68,23,51.28,22.46c-5.08,1.17-48.33-12.29-53-18.57C804,365.48,803.44,363.84,805.74,361.59Z" transform="translate(-530.59 -103.34)"/><path class="cls-12" d="M809.82,366.84a33.89,33.89,0,0,1,15.32-11.53" transform="translate(-530.59 -103.34)"/><path class="cls-12" d="M815.79,370.26a33.26,33.26,0,0,1,14.29-10.18" transform="translate(-530.59 -103.34)"/><path class="cls-12" d="M824.36,372.9a32.29,32.29,0,0,1,11.76-9.07" transform="translate(-530.59 -103.34)"/><path class="cls-12" d="M831.18,376.06a31.69,31.69,0,0,1,9.79-7.61" transform="translate(-530.59 -103.34)"/></g>
  
  <g class="cls-6 shadow shadow2"><path class="cls-7" d="M837.91,360.79s12.46-1,20.27.38,11-1.58,8.12-3.93-9.5-4.62-11.25-4.25.21-1-.23-5-.29-4.87-3.46-4.28-4,2.47-7-2.58-4.31-5.62-6.56-1.83-3.21,6.77-1.74,8.76,1.48,2.39.14,6.35a25,25,0,0,1-3.85,7S836.52,365,837.91,360.79Z" transform="translate(-530.59 -103.34)"/><path class="cls-7" d="M790.5,384.78s30.39-30.3,35.66-30.3,17.47,9.69,16.87,13.91S796.11,386.35,790.5,384.78Z" transform="translate(-530.59 -103.34)"/><path class="cls-7" d="M841.68,364.82s-43,20.83-51.18,20c4.71,1.38,47.3-10.05,52.4-16C842.9,368.73,843.64,367.14,841.68,364.82Z" transform="translate(-530.59 -103.34)"/><path class="cls-8" d="M837.25,369.82a29.86,29.86,0,0,0-13.38-12" transform="translate(-530.59 -103.34)"/><path class="cls-8" d="M831.21,372.94a29.23,29.23,0,0,0-12.55-10.65" transform="translate(-530.59 -103.34)"/><path class="cls-8" d="M822.76,375.18a28.43,28.43,0,0,0-10.25-9.44" transform="translate(-530.59 -103.34)"/><path class="cls-8" d="M815.94,378a27.89,27.89,0,0,0-8.53-7.92" transform="translate(-530.59 -103.34)"/></g>
  
  <g id="Carrot2"><path class="cls-9" d="M837,357.69s13.31-1.56,21.89-.53,11.67-2.1,8.3-4.34-10.76-4.24-12.6-3.79.1-1-.82-5-.87-4.91-4.22-4.16-4.05,2.68-7.84-2.28-5.28-5.48-7.27-1.55-2.69,7-.87,8.92,1.87,2.35.88,6.41a22.86,22.86,0,0,1-3.35,7.26S836,362,837,357.69Z" transform="translate(-530.59 -103.34)"/><path class="cls-10" d="M788.67,384.05s29.29-32,35-32.21,19.93,9,19.77,13.28S794.89,385.39,788.67,384.05Z" transform="translate(-530.59 -103.34)"/><path class="cls-11" d="M841.54,361.59s-44,23-52.87,22.46c5.24,1.17,49.83-12.29,54.63-18.57C843.3,365.48,843.91,363.84,841.54,361.59Z" transform="translate(-530.59 -103.34)"/><path class="cls-12" d="M837.33,366.84a34.75,34.75,0,0,0-15.79-11.53" transform="translate(-530.59 -103.34)"/><path class="cls-12" d="M831.18,370.26a34.19,34.19,0,0,0-14.73-10.18" transform="translate(-530.59 -103.34)"/><path class="cls-12" d="M822.34,372.9a33.1,33.1,0,0,0-12.12-9.07" transform="translate(-530.59 -103.34)"/><path class="cls-12" d="M815.3,376.06a32.48,32.48,0,0,0-10.1-7.61" transform="translate(-530.59 -103.34)"/></g>
  
  <path class="cls-13" d="M718.36,375c1.42,5.91-6.86,13-18.49,15.77s-22.22.28-23.64-5.62,6.86-13,18.49-15.77a40.94,40.94,0,0,1,7.36-1.09C710.53,367.83,717.25,370.38,718.36,375Z" transform="translate(-530.59 -103.34)"/><ellipse class="cls-13" cx="770.02" cy="383.07" rx="11" ry="21.69" transform="translate(-347.88 908.02) rotate(-73.38)"/><path class="cls-14" d="M684.75,317.63s4.38,53.82,0,55.1" transform="translate(-530.59 -103.34)"/><path class="cls-13" d="M675.5,361.5c6,27.5,105.24,30,114.12,0s-14.45-89-57.53-90.26S669.5,334,675.5,361.5Z" transform="translate(-530.59 -103.34)"/><path class="cls-14" d="M694.31,291.16s16.52,8,35.52,7.34,35.7-2.66,40-8.08S694.31,291.16,694.31,291.16Z" transform="translate(-530.59 -103.34)"/><path class="cls-13" d="M693.25,160.79c0,21.29-10.58,38.55-23.63,38.55S646,182.08,646,160.79c0-9.64-1.88-22.45,1.7-29.21,4.33-8.17,14.79-9.35,21.93-9.35,6,0,17.25-.62,21.42,5.44C695.91,134.74,693.25,149.33,693.25,160.79Z" transform="translate(-530.59 -103.34)"/><path class="cls-13" d="M701,213.77c4.06-3.08,9.16-7.22,13.89-9.05,5.86-21.41-15.27-65.41-20.58-72.85,2.49,17.41,7.38,54.44-13.94,66.52C680.39,198.39,691,211.38,701,213.77Z" transform="translate(-530.59 -103.34)"/><path class="cls-15" d="M683.59,196.2s18.71,25.24,26.53,7.08c4.75-18.47-10.66-58.6-14.85-65.06C697.22,153.29,699.14,185.37,683.59,196.2Z" transform="translate(-530.59 -103.34)"/><path class="cls-13" d="M783.83,103.73c-14-3.56-31.64,18-39.31,48.25-5.38,21.2-4.44,41,1.45,52.16,6.82,1.52,13,5.94,18.23,10,12.18-4.14,24.9-24.56,31.18-49.26,7.67-30.21,2.5-57.59-11.54-61.16" transform="translate(-530.59 -103.34)"/><ellipse class="cls-15" cx="768.83" cy="161.88" rx="46.15" ry="17.96" transform="translate(-107.82 763.9) rotate(-75.76)"/><path class="cls-13" d="M725.39,199.63s-34.79-2.48-43.49,47.64c-10.07,17.4-11.9,24.85-1.83,36.45s66.39,19.62,97.51,3.31c17.4-9.11,9.61-27.75,4.12-36S781.23,198.8,725.39,199.63Z" transform="translate(-530.59 -103.34)"/><circle class="cls-16" cx="175.11" cy="137.94" r="12.7"/><circle class="cls-13" cx="175.45" cy="132.69" r="4.23"/><circle class="cls-13" cx="181.71" cy="139.97" r="2.03"/><circle class="cls-16" cx="225.39" cy="137.94" r="12.7"/><circle class="cls-13" cx="226.74" cy="132.69" r="4.23"/><circle class="cls-13" cx="233.01" cy="139.97" r="2.03"/><path class="cls-17" d="M716.52,265.4s-38.6-9.82-63-1.35" transform="translate(-530.59 -103.34)"/><path class="cls-17" d="M716.37,265.71s-39.78-2-62,11.16" transform="translate(-530.59 -103.34)"/><path class="cls-17" d="M745,265.4s41.5-9.82,67.71-1.35" transform="translate(-530.59 -103.34)"/><path class="cls-17" d="M745.12,265.71s42.77-2,66.66,11.16" transform="translate(-530.59 -103.34)"/><path class="cls-15" d="M730.95,254.12s-8.23-5.49-9.51,2.65c-.73,6.51,10,9.56,10,9.56s10.35-4.81,8.34-10.48S732.87,252.38,730.95,254.12Z" transform="translate(-530.59 -103.34)"/><path class="cls-18" d="M716,382.06s0-27.39,6.38-33.42" transform="translate(-530.59 -103.34)"/><path class="cls-18" d="M684.75,374s5.53-27.61,1-30.77" transform="translate(-530.59 -103.34)"/><path class="cls-18" d="M749.93,382.06s-1-35.15-8.85-33.42" transform="translate(-530.59 -103.34)"/><path class="cls-18" d="M777.8,374.3s-10-28.18-4.55-30.55" transform="translate(-530.59 -103.34)"/><circle class="cls-15" cx="149.86" cy="280.49" r="1.78"/><circle class="cls-15" cx="155.13" cy="284.16" r="1.78"/><circle class="cls-15" cx="780.59" cy="392.51" r="1.78" transform="translate(-436.01 830.25) rotate(-64.96)"/><circle class="cls-15" cx="786.15" cy="389.28" r="1.78" transform="translate(-429.88 833.42) rotate(-64.96)"/><ellipse class="cls-21" cx="90.67" cy="250.65" rx="37.75" ry="3.36"/><path class="water cls-22" d="M585.34,355a196,196,0,0,1,35.91-2.74,245.48,245.48,0,0,1,35.09,2.94S618.68,360.47,585.34,355Z"/><path id="Bowl" class="cls-20" d="M52.91,250.66s-3.5,22,0,23.73,66,4.5,75.51-.11a29.63,29.63,0,0,0,0-23.62S86.47,257.74,52.91,250.66Z" transform="translate(0 -0.01)"/>
  
  <g class="cls-6 shadow shadow3"><path class="cls-7" d="M867.31,384.35s12.15,2.66,19.12,6.23,11,1.67,9-1.42-7.53-7.17-9.31-7.32.53-.93,1.39-4.84,1.3-4.75-1.91-5.09-4.62,1.2-5.82-4.49-2.28-6.62-5.63-3.64-5.23,5.55-4.48,7.88.64,2.71-1.91,6.12a26.34,26.34,0,0,1-5.92,5.6S864.62,388,867.31,384.35Z" transform="translate(-530.59 -103.34)"/><path class="cls-7" d="M814.56,393.59s38.62-20.2,43.63-18.67,13.46,14.33,11.53,18.19S819.38,396.72,814.56,393.59Z" transform="translate(-530.59 -103.34)"/><path class="cls-7" d="M869.58,389.3s-47.58,7.48-55,4.29c4,2.68,48.15,4.07,54.92-.19C869.48,393.4,870.69,392.08,869.58,389.3Z" transform="translate(-530.59 -103.34)"/><path class="cls-8" d="M863.76,392.8a28.63,28.63,0,0,0-8.83-15.37" transform="translate(-530.59 -103.34)"/><path class="cls-8" d="M857,394a28,28,0,0,0-8.48-13.82" transform="translate(-530.59 -103.34)"/><path class="cls-8" d="M848.28,393.74a27.25,27.25,0,0,0-6.69-12" transform="translate(-530.59 -103.34)"/><path class="cls-8" d="M840.89,394.46a26.72,26.72,0,0,0-5.54-10" transform="translate(-530.59 -103.34)"/></g>
  
  <g id="Carrot3"><path class="cls-9" d="M867.46,381.13s13.14,2.36,21,5.82,11.76,1.37,9.28-1.75-8.85-7.17-10.75-7.27.44-1,.84-5.05.76-4.95-2.66-5.2-4.71,1.39-6.7-4.45-3.25-6.77-6.41-3.58-4.8,5.91-3.71,8.29,1,2.78-1.23,6.38a24.05,24.05,0,0,1-5.52,6S865.09,384.95,867.46,381.13Z" transform="translate(-530.59 -103.34)"/><path class="cls-10" d="M813,392.37s38.12-22.12,43.59-20.7,16,14.37,14.49,18.43S818.53,395.45,813,392.37Z" transform="translate(-530.59 -103.34)"/><path class="cls-11" d="M870.49,386.17s-49.18,9.26-57.44,6.2c4.59,2.64,51.27,2.65,57.85-2C870.9,390.4,872,389,870.49,386.17Z" transform="translate(-530.59 -103.34)"/><path class="cls-12" d="M864.8,390a33.18,33.18,0,0,0-11.28-15.6" transform="translate(-530.59 -103.34)"/><path class="cls-12" d="M857.86,391.46a32.61,32.61,0,0,0-10.7-14" transform="translate(-530.59 -103.34)"/><path class="cls-12" d="M848.61,391.44A31.58,31.58,0,0,0,840,379.25" transform="translate(-530.59 -103.34)"/><path class="cls-12" d="M840.92,392.42a31,31,0,0,0-7.13-10.2" transform="translate(-530.59 -103.34)"/></g>
  
  </g></svg>